<?xml version="1.0" encoding="UTF-8"?> <svg xmlns="http://www.w3.org/2000/svg" xmlns:xlink="http://www.w3.org/1999/xlink" version="1.1" width="1199px" height="1080px" style="shape-rendering:geometricPrecision; text-rendering:geometricPrecision; image-rendering:optimizeQuality; fill-rule:evenodd; clip-rule:evenodd"><g><path style="opacity:1" fill="#e31f25" d="M 453.5,78.5 C 453.804,79.1499 454.137,79.8165 454.5,80.5C 460.72,83.7395 466.886,87.0728 473,90.5C 473.671,89.7476 474.504,89.4142 475.5,89.5C 519.517,113.832 556.85,146.165 587.5,186.5C 550.713,227.454 512.047,266.62 471.5,304C 455.044,318.057 438.044,331.39 420.5,344C 408.941,351.945 396.941,359.111 384.5,365.5C 379.091,367.368 373.757,369.534 368.5,372C 367.748,372.671 367.414,373.504 367.5,374.5C 360.497,378.397 353.163,381.731 345.5,384.5C 341.635,384.676 337.968,385.676 334.5,387.5C 334.137,388.183 333.804,388.85 333.5,389.5C 271.143,411.593 207.143,418.26 141.5,409.5C 136.731,408.111 131.731,407.444 126.5,407.5C 117.354,406.92 108.354,405.586 99.5,403.5C 94.3953,400.363 88.7286,399.029 82.5,399.5C 70.6944,394.262 63.3611,385.262 60.5,372.5C 60.2865,370.856 60.6198,369.356 61.5,368C 60.3094,367.302 59.3094,366.469 58.5,365.5C 53.9864,313.316 61.8197,262.983 82,214.5C 82.941,212.273 84.1077,210.273 85.5,208.5C 88.7005,205.134 91.2005,201.134 93,196.5C 93.49,195.207 93.6567,193.873 93.5,192.5C 101.525,176.438 111.525,161.771 123.5,148.5C 124.906,148.027 125.573,147.027 125.5,145.5C 127.167,143.167 129.167,141.167 131.5,139.5C 133.587,138.415 134.92,136.749 135.5,134.5C 136.167,133.167 137.167,132.167 138.5,131.5C 141.427,130.243 143.761,128.243 145.5,125.5C 168.777,102.592 195.777,85.2588 226.5,73.5C 227.496,73.4142 228.329,73.7476 229,74.5C 230.588,72.1919 232.588,71.5252 235,72.5C 235.513,71.4734 236.013,70.4734 236.5,69.5C 237.822,69.33 238.989,69.6634 240,70.5C 242.492,68.7378 244.992,67.0711 247.5,65.5C 251.327,63.8766 255.327,62.8766 259.5,62.5C 262.152,62.5905 264.485,61.9238 266.5,60.5C 330.846,45.6868 393.18,51.6868 453.5,78.5 Z"></path></g><g><path style="opacity:1" fill="#e32025" d="M 946.5,63.5 C 950.345,66.4266 954.512,69.0932 959,71.5C 959.671,70.7476 960.504,70.4142 961.5,70.5C 969.784,74.2831 975.95,80.2831 980,88.5C 981.101,97.4721 977.934,104.639 970.5,110C 959.261,116.755 947.928,123.255 936.5,129.5C 936.44,128.957 936.107,128.624 935.5,128.5C 932.301,130.864 928.968,133.03 925.5,135C 924.663,136.011 924.33,137.178 924.5,138.5C 893.836,159.977 865.669,184.644 840,212.5C 825.293,228.872 810.959,245.539 797,262.5C 771.617,294.882 746.617,327.549 722,360.5C 696.394,394.116 667.894,425.282 636.5,454C 625.174,464.173 613.174,473.34 600.5,481.5C 600.103,480.475 599.437,480.308 598.5,481C 593.672,484.581 588.672,487.915 583.5,491C 582.695,492.113 582.028,493.279 581.5,494.5C 572.826,500.841 563.493,506.175 553.5,510.5C 550.68,510.087 548.68,511.087 547.5,513.5C 520.502,527.056 492.168,537.056 462.5,543.5C 459.31,543.213 456.143,543.213 453,543.5C 452.487,544.527 451.987,545.527 451.5,546.5C 443.256,548.349 434.922,549.682 426.5,550.5C 424.08,550.708 421.747,550.374 419.5,549.5C 418.201,550.694 416.868,551.694 415.5,552.5C 411.901,553.344 408.234,553.677 404.5,553.5C 398.611,553.45 392.944,554.116 387.5,555.5C 338.037,559.668 288.704,558.668 239.5,552.5C 234.731,551.111 229.731,550.444 224.5,550.5C 203.837,548.878 183.504,545.878 163.5,541.5C 161.485,540.076 159.152,539.41 156.5,539.5C 118.743,528.247 92.5766,504.247 78,467.5C 73.7961,456.083 72.7961,444.416 75,432.5C 77.7459,424.58 83.2459,420.246 91.5,419.5C 100.292,420.742 108.959,422.409 117.5,424.5C 118.868,425.306 120.201,426.306 121.5,427.5C 123.409,426.652 125.409,426.318 127.5,426.5C 135.558,427.065 143.558,428.065 151.5,429.5C 155.9,431.104 160.566,431.771 165.5,431.5C 192.779,433.864 220.113,434.864 247.5,434.5C 256.056,434.78 264.39,434.114 272.5,432.5C 276.119,431.756 279.785,431.423 283.5,431.5C 287.79,431.802 291.79,431.136 295.5,429.5C 310.233,426.817 324.9,423.817 339.5,420.5C 342.152,420.59 344.485,419.924 346.5,418.5C 349.716,418.655 352.383,417.655 354.5,415.5C 401.452,399.864 444.119,376.697 482.5,346C 499.296,332.371 515.629,318.204 531.5,303.5C 537.167,299.833 541.833,295.167 545.5,289.5C 569.831,263.836 594.498,238.502 619.5,213.5C 622.243,211.761 624.243,209.427 625.5,206.5C 636.167,195.167 647.167,184.167 658.5,173.5C 662.1,171.57 665.1,168.903 667.5,165.5C 668.833,163.5 670.5,161.833 672.5,160.5C 676.1,158.57 679.1,155.903 681.5,152.5C 681.5,151.833 681.833,151.5 682.5,151.5C 685.764,149.906 688.431,147.573 690.5,144.5C 720.102,116.179 753.436,93.0128 790.5,75C 832.099,54.8416 875.766,48.1749 921.5,55C 930.244,56.9695 938.577,59.8029 946.5,63.5 Z"></path></g><g><path style="opacity:0.757" fill="#f17877" d="M 266.5,60.5 C 264.485,61.9238 262.152,62.5905 259.5,62.5C 261.515,61.0762 263.848,60.4095 266.5,60.5 Z"></path></g><g><path style="opacity:0.929" fill="#ed564a" d="M 946.5,63.5 C 951.919,65.0444 956.919,67.3777 961.5,70.5C 960.504,70.4142 959.671,70.7476 959,71.5C 954.512,69.0932 950.345,66.4266 946.5,63.5 Z"></path></g><g><path style="opacity:0.835" fill="#f16f66" d="M 247.5,65.5 C 244.992,67.0711 242.492,68.7378 240,70.5C 238.989,69.6634 237.822,69.33 236.5,69.5C 239.939,67.7957 243.605,66.4624 247.5,65.5 Z"></path></g><g><path style="opacity:0.906" fill="#ef6359" d="M 236.5,69.5 C 236.013,70.4734 235.513,71.4734 235,72.5C 232.588,71.5252 230.588,72.1919 229,74.5C 228.329,73.7476 227.496,73.4142 226.5,73.5C 229.518,71.6001 232.851,70.2667 236.5,69.5 Z"></path></g><g><path style="opacity:0.906" fill="#ed5649" d="M 453.5,78.5 C 461.151,81.6588 468.484,85.3255 475.5,89.5C 474.504,89.4142 473.671,89.7476 473,90.5C 466.886,87.0728 460.72,83.7395 454.5,80.5C 454.137,79.8165 453.804,79.1499 453.5,78.5 Z"></path></g><g><path style="opacity:0.718" fill="#f47e79" d="M 145.5,125.5 C 143.761,128.243 141.427,130.243 138.5,131.5C 140.239,128.757 142.573,126.757 145.5,125.5 Z"></path></g><g><path style="opacity:0.875" fill="#ee5c4e" d="M 936.5,129.5 C 932.896,132.975 928.896,135.975 924.5,138.5C 924.33,137.178 924.663,136.011 925.5,135C 928.968,133.03 932.301,130.864 935.5,128.5C 936.107,128.624 936.44,128.957 936.5,129.5 Z"></path></g><g><path style="opacity:0.639" fill="#f7918e" d="M 135.5,134.5 C 134.92,136.749 133.587,138.415 131.5,139.5C 132.08,137.251 133.413,135.585 135.5,134.5 Z"></path></g><g><path style="opacity:0.671" fill="#f89591" d="M 125.5,145.5 C 125.573,147.027 124.906,148.027 123.5,148.5C 123.427,146.973 124.094,145.973 125.5,145.5 Z"></path></g><g><path style="opacity:0.835" fill="#f0655c" d="M 690.5,144.5 C 688.431,147.573 685.764,149.906 682.5,151.5C 684.569,148.427 687.236,146.094 690.5,144.5 Z"></path></g><g><path style="opacity:1" fill="#e32026" d="M 1070.5,159.5 C 1070.41,160.496 1070.75,161.329 1071.5,162C 1074.1,163.14 1076.77,163.973 1079.5,164.5C 1083.82,167.486 1087.82,170.82 1091.5,174.5C 1091.43,176.027 1092.09,177.027 1093.5,177.5C 1107.75,191.908 1111.92,208.908 1106,228.5C 1104.07,232.759 1101.73,236.759 1099,240.5C 1060.16,273.668 1022.83,308.668 987,345.5C 936.925,400.238 887.591,455.571 839,511.5C 797.329,557.529 751.162,598.029 700.5,633C 677.272,647.614 652.938,660.114 627.5,670.5C 624.364,669.979 622.03,670.979 620.5,673.5C 561.447,695.76 500.28,706.426 437,705.5C 413.038,705.402 389.205,704.069 365.5,701.5C 360.04,700.263 354.373,699.596 348.5,699.5C 346.833,699.5 345.167,699.5 343.5,699.5C 339.79,697.864 335.79,697.198 331.5,697.5C 298.518,693.503 265.852,687.67 233.5,680C 213.672,673.759 196.005,663.926 180.5,650.5C 180.027,649.094 179.027,648.427 177.5,648.5C 160.141,633.781 146.641,616.115 137,595.5C 135.57,592.647 134.737,589.647 134.5,586.5C 134.286,584.856 134.62,583.356 135.5,582C 133.586,577.142 132.919,571.975 133.5,566.5C 133.328,565.508 133.662,564.842 134.5,564.5C 135.906,564.027 136.573,563.027 136.5,561.5C 137.975,559.59 139.975,558.424 142.5,558C 148.754,557.108 154.754,557.608 160.5,559.5C 161.848,560.186 163.015,561.186 164,562.5C 165.356,561.62 166.856,561.286 168.5,561.5C 168.833,561.5 169.167,561.5 169.5,561.5C 170.848,562.186 172.015,563.186 173,564.5C 174.356,563.62 175.856,563.286 177.5,563.5C 179.292,563.366 180.958,563.699 182.5,564.5C 183.105,566.026 184.271,567.026 186,567.5C 187.699,566.594 189.533,566.261 191.5,566.5C 196.924,567.07 202.257,568.07 207.5,569.5C 208.848,570.186 210.015,571.186 211,572.5C 214.273,573.616 217.773,573.616 221.5,572.5C 230.265,573.406 238.932,574.739 247.5,576.5C 248.765,577.479 250.099,578.479 251.5,579.5C 253.747,578.626 256.08,578.292 258.5,578.5C 283.104,581.289 307.771,583.456 332.5,585C 385.088,587.788 437.088,583.622 488.5,572.5C 491.152,572.59 493.485,571.924 495.5,570.5C 502.289,568.131 509.289,566.131 516.5,564.5C 519.716,564.655 522.383,563.655 524.5,561.5C 563.651,548.259 599.985,529.759 633.5,506C 648.663,494.333 663.663,482.5 678.5,470.5C 682.436,468.234 685.769,465.234 688.5,461.5C 689.5,459.833 690.833,458.5 692.5,457.5C 697.5,454.5 701.5,450.5 704.5,445.5C 718.893,431.11 732.893,416.443 746.5,401.5C 747.906,401.027 748.573,400.027 748.5,398.5C 752.277,393.935 756.277,389.602 760.5,385.5C 761.906,385.027 762.573,384.027 762.5,382.5C 763.5,380.833 764.833,379.5 766.5,378.5C 767.906,378.027 768.573,377.027 768.5,375.5C 789.781,349.219 811.781,323.553 834.5,298.5C 835.906,298.027 836.573,297.027 836.5,295.5C 853.463,276.202 871.13,257.536 889.5,239.5C 892.089,238.581 894.089,236.914 895.5,234.5C 927.069,203.111 962.736,177.277 1002.5,157C 1018.64,150.409 1035.3,148.742 1052.5,152C 1058.95,153.645 1064.95,156.145 1070.5,159.5 Z"></path></g><g><path style="opacity:0.882" fill="#f0655c" d="M 681.5,152.5 C 679.1,155.903 676.1,158.57 672.5,160.5C 674.9,157.097 677.9,154.43 681.5,152.5 Z"></path></g><g><path style="opacity:0.867" fill="#f06557" d="M 1070.5,159.5 C 1073.99,160.41 1076.99,162.076 1079.5,164.5C 1076.77,163.973 1074.1,163.14 1071.5,162C 1070.75,161.329 1070.41,160.496 1070.5,159.5 Z"></path></g><g><path style="opacity:0.702" fill="#f47f79" d="M 667.5,165.5 C 665.1,168.903 662.1,171.57 658.5,173.5C 660.9,170.097 663.9,167.43 667.5,165.5 Z"></path></g><g><path style="opacity:0.639" fill="#f89a97" d="M 1091.5,174.5 C 1092.91,174.973 1093.57,175.973 1093.5,177.5C 1092.09,177.027 1091.43,176.027 1091.5,174.5 Z"></path></g><g><path style="opacity:1" fill="#ed5649" d="M 93.5,192.5 C 93.6567,193.873 93.49,195.207 93,196.5C 91.2005,201.134 88.7005,205.134 85.5,208.5C 87.1263,202.581 89.7929,197.247 93.5,192.5 Z"></path></g><g><path style="opacity:0.678" fill="#f7908c" d="M 625.5,206.5 C 624.243,209.427 622.243,211.761 619.5,213.5C 620.757,210.573 622.757,208.239 625.5,206.5 Z"></path></g><g><path style="opacity:0.678" fill="#f68885" d="M 895.5,234.5 C 894.089,236.914 892.089,238.581 889.5,239.5C 890.911,237.086 892.911,235.419 895.5,234.5 Z"></path></g><g><path style="opacity:0.647" fill="#f89996" d="M 836.5,295.5 C 836.573,297.027 835.906,298.027 834.5,298.5C 834.427,296.973 835.094,295.973 836.5,295.5 Z"></path></g><g><path style="opacity:0.827" fill="#f16a60" d="M 545.5,289.5 C 541.833,295.167 537.167,299.833 531.5,303.5C 535.833,298.5 540.5,293.833 545.5,289.5 Z"></path></g><g><path style="opacity:1" fill="#e32126" d="M 1138.5,324.5 C 1138.41,327.152 1139.08,329.485 1140.5,331.5C 1140.5,331.833 1140.5,332.167 1140.5,332.5C 1140.5,341.167 1140.5,349.833 1140.5,358.5C 1137.68,395.807 1128.01,431.14 1111.5,464.5C 1110.36,464.908 1109.36,465.575 1108.5,466.5C 1106.91,470.266 1105.08,473.933 1103,477.5C 1102.51,479.134 1102.34,480.801 1102.5,482.5C 1100.75,486.335 1098.75,490.001 1096.5,493.5C 1096.44,492.957 1096.11,492.624 1095.5,492.5C 1091.21,497.461 1088.21,503.128 1086.5,509.5C 1062.6,547.932 1033.94,582.766 1000.5,614C 968.634,643.906 934.3,670.406 897.5,693.5C 893.191,694.485 889.191,696.319 885.5,699C 883.365,699.876 882.031,701.376 881.5,703.5C 848.363,724.569 813.363,742.236 776.5,756.5C 772.635,756.676 768.968,757.676 765.5,759.5C 765.137,760.183 764.804,760.85 764.5,761.5C 629.167,811.64 490.167,825.473 347.5,803C 302.509,792.632 266.676,768.799 240,731.5C 228.427,707.573 235.594,698.573 261.5,704.5C 262.848,705.186 264.015,706.186 265,707.5C 266.699,706.594 268.533,706.261 270.5,706.5C 277.599,707.358 284.599,708.692 291.5,710.5C 292.848,711.186 294.015,712.186 295,713.5C 298.273,714.616 301.773,714.616 305.5,713.5C 306.167,713.5 306.833,713.5 307.5,713.5C 308.848,714.186 310.015,715.186 311,716.5C 313.041,715.577 315.208,715.244 317.5,715.5C 358.913,722.218 400.58,726.552 442.5,728.5C 451.994,729.166 461.661,729.5 471.5,729.5C 484.706,729.72 497.706,729.054 510.5,727.5C 603.119,721.353 687.119,691.52 762.5,638C 790.629,617.597 817.629,595.764 843.5,572.5C 847.771,569.899 851.437,566.566 854.5,562.5C 859.167,557.167 864.167,552.167 869.5,547.5C 878.412,540.093 886.912,532.093 895,523.5C 895.464,522.906 895.631,522.239 895.5,521.5C 903.833,512.5 912.5,503.833 921.5,495.5C 923.587,494.415 924.92,492.749 925.5,490.5C 934.612,480.599 943.945,470.932 953.5,461.5C 954.906,461.027 955.573,460.027 955.5,458.5C 993.463,416.87 1032.13,375.87 1071.5,335.5C 1074.24,333.761 1076.24,331.427 1077.5,328.5C 1085.71,318.126 1096.05,310.626 1108.5,306C 1124.43,302.789 1134.43,308.956 1138.5,324.5 Z"></path></g><g><path style="opacity:0.608" fill="#f2817f" d="M 1138.5,324.5 C 1139.92,326.515 1140.59,328.848 1140.5,331.5C 1139.08,329.485 1138.41,327.152 1138.5,324.5 Z"></path></g><g><path style="opacity:0.631" fill="#f7918d" d="M 1077.5,328.5 C 1076.24,331.427 1074.24,333.761 1071.5,335.5C 1072.76,332.573 1074.76,330.239 1077.5,328.5 Z"></path></g><g><path style="opacity:0.767" fill="#f1726e" d="M 1140.5,332.5 C 1141.24,335.36 1141.91,338.36 1142.5,341.5C 1141.87,347.298 1141.21,352.964 1140.5,358.5C 1140.5,349.833 1140.5,341.167 1140.5,332.5 Z"></path></g><g><path style="opacity:1" fill="#f3776d" d="M 58.5,365.5 C 59.3094,366.469 60.3094,367.302 61.5,368C 60.6198,369.356 60.2865,370.856 60.5,372.5C 59.3882,370.401 58.7215,368.067 58.5,365.5 Z"></path></g><g><path style="opacity:1" fill="#f1695c" d="M 384.5,365.5 C 379.316,369.26 373.65,372.26 367.5,374.5C 367.414,373.504 367.748,372.671 368.5,372C 373.757,369.534 379.091,367.368 384.5,365.5 Z"></path></g><g><path style="opacity:0.671" fill="#f89693" d="M 768.5,375.5 C 768.573,377.027 767.906,378.027 766.5,378.5C 766.427,376.973 767.094,375.973 768.5,375.5 Z"></path></g><g><path style="opacity:0.663" fill="#f89693" d="M 762.5,382.5 C 762.573,384.027 761.906,385.027 760.5,385.5C 760.427,383.973 761.094,382.973 762.5,382.5 Z"></path></g><g><path style="opacity:1" fill="#f26d5f" d="M 345.5,384.5 C 341.739,386.538 337.739,388.204 333.5,389.5C 333.804,388.85 334.137,388.183 334.5,387.5C 337.968,385.676 341.635,384.676 345.5,384.5 Z"></path></g><g><path style="opacity:0.663" fill="#f89794" d="M 748.5,398.5 C 748.573,400.027 747.906,401.027 746.5,401.5C 746.427,399.973 747.094,398.973 748.5,398.5 Z"></path></g><g><path style="opacity:1" fill="#eb5147" d="M 82.5,399.5 C 88.7286,399.029 94.3953,400.363 99.5,403.5C 93.5392,402.912 87.8725,401.579 82.5,399.5 Z"></path></g><g><path style="opacity:0.78" fill="#f17c79" d="M 126.5,407.5 C 131.731,407.444 136.731,408.111 141.5,409.5C 136.269,409.556 131.269,408.889 126.5,407.5 Z"></path></g><g><path style="opacity:0.827" fill="#f2766f" d="M 354.5,415.5 C 352.383,417.655 349.716,418.655 346.5,418.5C 348.936,417.129 351.603,416.129 354.5,415.5 Z"></path></g><g><path style="opacity:0.765" fill="#f17673" d="M 346.5,418.5 C 344.485,419.924 342.152,420.59 339.5,420.5C 341.515,419.076 343.848,418.41 346.5,418.5 Z"></path></g><g><path style="opacity:1" fill="#f16d64" d="M 117.5,424.5 C 121.078,424.549 124.411,425.215 127.5,426.5C 125.409,426.318 123.409,426.652 121.5,427.5C 120.201,426.306 118.868,425.306 117.5,424.5 Z"></path></g><g><path style="opacity:0.529" fill="#f59796" d="M 151.5,429.5 C 156.37,429.69 161.036,430.356 165.5,431.5C 160.566,431.771 155.9,431.104 151.5,429.5 Z"></path></g><g><path style="opacity:0.78" fill="#f27f7d" d="M 295.5,429.5 C 291.79,431.136 287.79,431.802 283.5,431.5C 287.295,430.383 291.295,429.717 295.5,429.5 Z"></path></g><g><path style="opacity:0.765" fill="#f17e7c" d="M 272.5,432.5 C 264.39,434.114 256.056,434.78 247.5,434.5C 255.65,433.399 263.983,432.732 272.5,432.5 Z"></path></g><g><path style="opacity:0.859" fill="#ef6258" d="M 704.5,445.5 C 701.5,450.5 697.5,454.5 692.5,457.5C 696.167,453.167 700.167,449.167 704.5,445.5 Z"></path></g><g><path style="opacity:0.639" fill="#f99a96" d="M 955.5,458.5 C 955.573,460.027 954.906,461.027 953.5,461.5C 953.427,459.973 954.094,458.973 955.5,458.5 Z"></path></g><g><path style="opacity:0.906" fill="#ef6359" d="M 688.5,461.5 C 685.769,465.234 682.436,468.234 678.5,470.5C 681.231,466.766 684.564,463.766 688.5,461.5 Z"></path></g><g><path style="opacity:0.941" fill="#ef6154" d="M 1111.5,464.5 C 1109.01,470.818 1106.01,476.818 1102.5,482.5C 1102.34,480.801 1102.51,479.134 1103,477.5C 1105.08,473.933 1106.91,470.266 1108.5,466.5C 1109.36,465.575 1110.36,464.908 1111.5,464.5 Z"></path></g><g><path style="opacity:0.957" fill="#ee5a4c" d="M 600.5,481.5 C 594.696,486.572 588.362,490.905 581.5,494.5C 582.028,493.279 582.695,492.113 583.5,491C 588.672,487.915 593.672,484.581 598.5,481C 599.437,480.308 600.103,480.475 600.5,481.5 Z"></path></g><g><path style="opacity:0.655" fill="#f7908c" d="M 925.5,490.5 C 924.92,492.749 923.587,494.415 921.5,495.5C 922.08,493.251 923.413,491.585 925.5,490.5 Z"></path></g><g><path style="opacity:0.949" fill="#ef5f51" d="M 1096.5,493.5 C 1093.65,499.206 1090.32,504.539 1086.5,509.5C 1088.21,503.128 1091.21,497.461 1095.5,492.5C 1096.11,492.624 1096.44,492.957 1096.5,493.5 Z"></path></g><g><path style="opacity:1" fill="#f67e70" d="M 553.5,510.5 C 551.819,512.008 549.819,513.008 547.5,513.5C 548.68,511.087 550.68,510.087 553.5,510.5 Z"></path></g><g><path style="opacity:0.678" fill="#f68781" d="M 895.5,521.5 C 895.631,522.239 895.464,522.906 895,523.5C 886.912,532.093 878.412,540.093 869.5,547.5C 877.833,538.5 886.5,529.833 895.5,521.5 Z"></path></g><g><path style="opacity:0.592" fill="#f38886" d="M 156.5,539.5 C 159.152,539.41 161.485,540.076 163.5,541.5C 160.848,541.59 158.515,540.924 156.5,539.5 Z"></path></g><g><path style="opacity:0.945" fill="#f16c61" d="M 462.5,543.5 C 459.039,544.866 455.373,545.866 451.5,546.5C 451.987,545.527 452.487,544.527 453,543.5C 456.143,543.213 459.31,543.213 462.5,543.5 Z"></path></g><g><path style="opacity:1" fill="#f16f65" d="M 426.5,550.5 C 423.054,551.687 419.387,552.354 415.5,552.5C 416.868,551.694 418.201,550.694 419.5,549.5C 421.747,550.374 424.08,550.708 426.5,550.5 Z"></path></g><g><path style="opacity:0.631" fill="#f17e7d" d="M 224.5,550.5 C 229.731,550.444 234.731,551.111 239.5,552.5C 234.269,552.556 229.269,551.889 224.5,550.5 Z"></path></g><g><path style="opacity:0.118" fill="#f6a3a2" d="M 404.5,553.5 C 399.056,554.884 393.389,555.55 387.5,555.5C 392.944,554.116 398.611,553.45 404.5,553.5 Z"></path></g><g><path style="opacity:1" fill="#f47b71" d="M 160.5,559.5 C 163.428,559.565 166.095,560.232 168.5,561.5C 166.856,561.286 165.356,561.62 164,562.5C 163.015,561.186 161.848,560.186 160.5,559.5 Z"></path></g><g><path style="opacity:0.486" fill="#f69694" d="M 136.5,561.5 C 136.573,563.027 135.906,564.027 134.5,564.5C 134.427,562.973 135.094,561.973 136.5,561.5 Z"></path></g><g><path style="opacity:1" fill="#f68a80" d="M 169.5,561.5 C 172.428,561.565 175.095,562.232 177.5,563.5C 175.856,563.286 174.356,563.62 173,564.5C 172.015,563.186 170.848,562.186 169.5,561.5 Z"></path></g><g><path style="opacity:0.82" fill="#f27771" d="M 524.5,561.5 C 522.383,563.655 519.716,564.655 516.5,564.5C 518.936,563.129 521.603,562.129 524.5,561.5 Z"></path></g><g><path style="opacity:1" fill="#f26f62" d="M 182.5,564.5 C 185.727,564.676 188.727,565.343 191.5,566.5C 189.533,566.261 187.699,566.594 186,567.5C 184.271,567.026 183.105,566.026 182.5,564.5 Z"></path></g><g><path style="opacity:0.898" fill="#f0675e" d="M 854.5,562.5 C 851.437,566.566 847.771,569.899 843.5,572.5C 846.563,568.434 850.229,565.101 854.5,562.5 Z"></path></g><g><path style="opacity:0.78" fill="#f07471" d="M 495.5,570.5 C 493.485,571.924 491.152,572.59 488.5,572.5C 490.515,571.076 492.848,570.41 495.5,570.5 Z"></path></g><g><path style="opacity:1" fill="#f3776d" d="M 207.5,569.5 C 212.391,570.01 217.058,571.01 221.5,572.5C 217.773,573.616 214.273,573.616 211,572.5C 210.015,571.186 208.848,570.186 207.5,569.5 Z"></path></g><g><path style="opacity:1" fill="#f16f64" d="M 247.5,576.5 C 251.387,576.646 255.054,577.313 258.5,578.5C 256.08,578.292 253.747,578.626 251.5,579.5C 250.099,578.479 248.765,577.479 247.5,576.5 Z"></path></g><g><path style="opacity:1" fill="#f57f76" d="M 133.5,566.5 C 132.919,571.975 133.586,577.142 135.5,582C 134.62,583.356 134.286,584.856 134.5,586.5C 131.505,579.907 131.172,573.24 133.5,566.5 Z"></path></g><g><path style="opacity:0.694" fill="#f8938f" d="M 177.5,648.5 C 179.027,648.427 180.027,649.094 180.5,650.5C 178.973,650.573 177.973,649.906 177.5,648.5 Z"></path></g><g><path style="opacity:1" fill="#f57c6e" d="M 627.5,670.5 C 625.351,671.736 623.018,672.736 620.5,673.5C 622.03,670.979 624.364,669.979 627.5,670.5 Z"></path></g><g><path style="opacity:1" fill="#e32226" d="M 466.5,910.5 C 464.485,909.076 462.152,908.41 459.5,908.5C 421.921,897.708 386.921,881.541 354.5,860C 347.311,854.28 342.978,846.947 341.5,838C 341.436,832.391 344.103,828.724 349.5,827C 353.598,825.994 357.764,825.494 362,825.5C 406.361,831.524 450.861,836.191 495.5,839.5C 509.973,840.957 524.64,841.624 539.5,841.5C 548.673,841.5 557.673,841.166 566.5,840.5C 585.503,839.409 604.503,838.076 623.5,836.5C 627.489,836.884 631.155,836.217 634.5,834.5C 668.768,829.849 702.435,822.516 735.5,812.5C 739.162,812.277 742.495,811.277 745.5,809.5C 800.596,789.847 853.93,766.014 905.5,738C 933.245,721.933 961.245,706.266 989.5,691C 992,690.167 994.5,689.333 997,688.5C 1000.1,688.788 1001.6,690.455 1001.5,693.5C 999.401,701.297 996.235,708.63 992,715.5C 935.834,804.965 857.668,867.132 757.5,902C 669.525,931.764 580.192,936.764 489.5,917C 481.582,915.274 473.915,913.108 466.5,910.5 Z"></path></g><g><path style="opacity:0.765" fill="#f48c8a" d="M 331.5,697.5 C 335.79,697.198 339.79,697.864 343.5,699.5C 339.295,699.283 335.295,698.617 331.5,697.5 Z"></path></g><g><path style="opacity:0.749" fill="#f2817e" d="M 348.5,699.5 C 354.373,699.596 360.04,700.263 365.5,701.5C 359.596,701.679 353.929,701.012 348.5,699.5 Z"></path></g><g><path style="opacity:0.961" fill="#ed5549" d="M 897.5,693.5 C 892.511,697.331 887.178,700.664 881.5,703.5C 882.031,701.376 883.365,699.876 885.5,699C 889.191,696.319 893.191,694.485 897.5,693.5 Z"></path></g><g><path style="opacity:1" fill="#f78d83" d="M 261.5,704.5 C 264.727,704.676 267.727,705.343 270.5,706.5C 268.533,706.261 266.699,706.594 265,707.5C 264.015,706.186 262.848,705.186 261.5,704.5 Z"></path></g><g><path style="opacity:1" fill="#f3776d" d="M 291.5,710.5 C 296.391,711.01 301.058,712.01 305.5,713.5C 301.773,714.616 298.273,714.616 295,713.5C 294.015,712.186 292.848,711.186 291.5,710.5 Z"></path></g><g><path style="opacity:1" fill="#f47c73" d="M 307.5,713.5 C 311.078,713.549 314.411,714.215 317.5,715.5C 315.208,715.244 313.041,715.577 311,716.5C 310.015,715.186 308.848,714.186 307.5,713.5 Z"></path></g><g><path style="opacity:1" fill="#f4908d" d="M 510.5,727.5 C 497.706,729.054 484.706,729.72 471.5,729.5C 461.661,729.5 451.994,729.166 442.5,728.5C 465.178,728.69 487.845,728.357 510.5,727.5 Z"></path></g><g><path style="opacity:0.969" fill="#f16a5c" d="M 776.5,756.5 C 772.739,758.538 768.739,760.204 764.5,761.5C 764.804,760.85 765.137,760.183 765.5,759.5C 768.968,757.676 772.635,756.676 776.5,756.5 Z"></path></g><g><path style="opacity:0.757" fill="#f4817c" d="M 745.5,809.5 C 742.495,811.277 739.162,812.277 735.5,812.5C 738.505,810.723 741.838,809.723 745.5,809.5 Z"></path></g><g><path style="opacity:0.741" fill="#f48f8c" d="M 634.5,834.5 C 631.155,836.217 627.489,836.884 623.5,836.5C 626.974,835.475 630.64,834.808 634.5,834.5 Z"></path></g><g><path style="opacity:0.382" fill="#f39091" d="M 495.5,839.5 C 519.159,840.256 542.826,840.59 566.5,840.5C 557.673,841.166 548.673,841.5 539.5,841.5C 524.64,841.624 509.973,840.957 495.5,839.5 Z"></path></g><g><path style="opacity:0.796" fill="#f4817c" d="M 459.5,908.5 C 462.152,908.41 464.485,909.076 466.5,910.5C 463.848,910.59 461.515,909.924 459.5,908.5 Z"></path></g><g><path style="opacity:0.741" fill="#f37c78" d="M 469.5,930.5 C 464.5,930.5 459.5,930.5 454.5,930.5C 459.404,928.56 464.404,928.56 469.5,930.5 Z"></path></g><g><path style="opacity:1" fill="#e32427" d="M 454.5,930.5 C 459.5,930.5 464.5,930.5 469.5,930.5C 475.087,930.897 480.42,932.23 485.5,934.5C 486.469,935.309 487.302,936.309 488,937.5C 489.011,936.663 490.178,936.33 491.5,936.5C 497.903,937.969 504.236,939.636 510.5,941.5C 511.469,942.309 512.302,943.309 513,944.5C 515.593,945.572 518.426,945.572 521.5,944.5C 521.833,944.5 522.167,944.5 522.5,944.5C 523.469,945.309 524.302,946.309 525,947.5C 527.785,948.579 530.952,948.579 534.5,947.5C 560.949,952.686 587.616,956.352 614.5,958.5C 624.623,960.009 634.957,960.676 645.5,960.5C 652.675,960.5 659.675,960.166 666.5,959.5C 684.534,958.885 702.534,957.551 720.5,955.5C 724.45,955.761 728.117,956.928 731.5,959C 733.955,961.664 734.122,964.498 732,967.5C 709.763,986.701 685.597,1003.03 659.5,1016.5C 656.68,1016.09 654.68,1017.09 653.5,1019.5C 636.381,1029.74 618.048,1032.74 598.5,1028.5C 594.189,1025.17 589.189,1023.84 583.5,1024.5C 573.451,1021.82 563.784,1018.15 554.5,1013.5C 551.292,1009.88 547.292,1007.21 542.5,1005.5C 541.537,1005.97 541.537,1006.64 542.5,1007.5C 528.714,1001.02 515.714,993.354 503.5,984.5C 503.027,983.094 502.027,982.427 500.5,982.5C 500.027,981.094 499.027,980.427 497.5,980.5C 484.247,971.94 471.747,962.273 460,951.5C 456.549,948.044 453.882,944.044 452,939.5C 451.333,937.167 451.333,934.833 452,932.5C 452.708,931.619 453.542,930.953 454.5,930.5 Z"></path></g><g><path style="opacity:1" fill="#f47c71" d="M 485.5,934.5 C 487.786,934.595 489.786,935.262 491.5,936.5C 490.178,936.33 489.011,936.663 488,937.5C 487.302,936.309 486.469,935.309 485.5,934.5 Z"></path></g><g><path style="opacity:0.941" fill="#f17167" d="M 510.5,941.5 C 514.397,942.055 518.063,943.055 521.5,944.5C 518.426,945.572 515.593,945.572 513,944.5C 512.302,943.309 511.469,942.309 510.5,941.5 Z"></path></g><g><path style="opacity:0.945" fill="#f06c62" d="M 522.5,944.5 C 526.687,945.213 530.687,946.213 534.5,947.5C 530.952,948.579 527.785,948.579 525,947.5C 524.302,946.309 523.469,945.309 522.5,944.5 Z"></path></g><g><path style="opacity:0.502" fill="#f18283" d="M 614.5,958.5 C 631.824,959.203 649.158,959.537 666.5,959.5C 659.675,960.166 652.675,960.5 645.5,960.5C 634.957,960.676 624.623,960.009 614.5,958.5 Z"></path></g><g><path style="opacity:0.494" fill="#f59290" d="M 497.5,980.5 C 499.027,980.427 500.027,981.094 500.5,982.5C 498.973,982.573 497.973,981.906 497.5,980.5 Z"></path></g><g><path style="opacity:0.486" fill="#f69390" d="M 500.5,982.5 C 502.027,982.427 503.027,983.094 503.5,984.5C 501.973,984.573 500.973,983.906 500.5,982.5 Z"></path></g><g><path style="opacity:1" fill="#ee5b4e" d="M 554.5,1013.5 C 550.182,1012.01 546.182,1010.01 542.5,1007.5C 541.537,1006.64 541.537,1005.97 542.5,1005.5C 547.292,1007.21 551.292,1009.88 554.5,1013.5 Z"></path></g><g><path style="opacity:0.859" fill="#f57d71" d="M 659.5,1016.5 C 657.819,1018.01 655.819,1019.01 653.5,1019.5C 654.68,1017.09 656.68,1016.09 659.5,1016.5 Z"></path></g><g><path style="opacity:1" fill="#ed584e" d="M 583.5,1024.5 C 589.189,1023.84 594.189,1025.17 598.5,1028.5C 593.191,1027.92 588.191,1026.59 583.5,1024.5 Z"></path></g></svg> 